<?xml version="1.0" standalone="no"?>
<!DOCTYPE svg PUBLIC "-//W3C//DTD SVG 20010904//EN"
 "http://www.w3.org/TR/2001/REC-SVG-20010904/DTD/svg10.dtd">
<svg version="1.0" xmlns="http://www.w3.org/2000/svg"
 width="1080.000000pt" height="1080.000000pt" viewBox="0 0 1080.000000 1080.000000"
 preserveAspectRatio="xMidYMid meet">

<g transform="translate(0.000000,1080.000000) scale(0.100000,-0.100000)"
fill="#000000" stroke="none">
<path d="M1601 10789 c-382 -43 -750 -213 -1033 -478 -261 -245 -450 -579
-526 -931 -100 -463 -11 -958 244 -1352 284 -441 773 -753 1269 -809 136 -15
144 -21 46 -31 -119 -12 -299 -53 -411 -95 -657 -244 -1103 -815 -1179 -1505
-54 -491 109 -1003 439 -1376 296 -335 723 -557 1151 -600 97 -10 90 -15 -41
-31 -564 -64 -1093 -439 -1360 -962 -283 -554 -264 -1197 51 -1735 266 -452
718 -763 1254 -860 136 -25 448 -25 589 -1 763 133 1350 720 1481 1481 8 49
15 106 15 127 0 22 5 39 10 39 6 0 10 -17 10 -39 0 -21 7 -78 15 -127 174
-1006 1130 -1665 2129 -1468 662 131 1204 636 1381 1289 29 106 55 252 55 306
0 68 17 42 23 -35 21 -244 132 -553 281 -780 276 -421 702 -700 1211 -792 137
-25 449 -25 590 -1 267 46 533 157 750 312 397 284 654 705 737 1205 19 115
16 434 -6 555 -79 436 -291 806 -617 1079 -288 242 -614 378 -1004 419 -45 5
-15 12 120 31 196 26 449 113 622 214 778 455 1105 1403 772 2237 -144 362
-441 699 -786 894 -209 117 -487 203 -723 224 -51 4 -21 12 115 31 402 54 797
270 1077 591 562 642 597 1581 86 2267 -84 113 -274 299 -386 378 -231 163
-474 265 -757 316 -123 22 -439 25 -560 5 -666 -108 -1193 -541 -1428 -1171
-42 -112 -84 -297 -93 -404 -4 -42 -10 -76 -14 -76 -4 0 -10 33 -13 74 -28
330 -197 710 -436 983 -453 517 -1178 732 -1841 546 -319 -89 -634 -288 -858
-543 -242 -276 -411 -654 -439 -984 -3 -42 -9 -73 -13 -69 -4 4 -12 51 -18
103 -16 137 -62 308 -119 447 -237 573 -754 986 -1364 1088 -115 20 -384 27
-498 14z m2012 -1993 c31 -358 215 -752 485 -1037 194 -205 463 -375 737 -468
101 -34 322 -81 381 -81 22 0 46 -5 54 -10 11 -7 1 -10 -35 -10 -27 0 -86 -6
-130 -14 -573 -101 -1055 -456 -1310 -966 -99 -197 -166 -421 -181 -604 -4
-42 -10 -76 -14 -76 -4 0 -10 34 -14 76 -7 91 -47 275 -80 371 -170 494 -559
905 -1031 1091 -174 69 -396 122 -507 122 -21 0 -38 5 -38 10 0 6 17 10 38 10
59 0 217 28 316 57 675 192 1173 746 1291 1437 8 49 15 109 15 133 0 70 16 41
23 -41z m3597 35 c0 -113 65 -371 133 -532 175 -408 472 -720 870 -914 201
-98 392 -153 588 -171 72 -7 95 -24 33 -24 -54 0 -168 -19 -276 -46 -502 -125
-931 -470 -1163 -934 -97 -192 -166 -425 -181 -604 -4 -42 -10 -76 -14 -76 -4
0 -10 33 -13 74 -20 232 -124 530 -264 755 -283 453 -798 777 -1324 829 -98
10 -90 15 45 31 127 14 274 52 404 103 595 232 1019 752 1127 1382 8 49 15
109 15 133 0 27 4 42 10 38 6 -3 10 -23 10 -44z m-3597 -3635 c27 -318 185
-683 414 -958 212 -255 530 -464 854 -562 98 -29 284 -66 337 -66 20 0 44 -5
52 -10 11 -7 0 -10 -39 -10 -29 0 -110 -11 -180 -25 -699 -142 -1251 -679
-1405 -1368 -15 -63 -29 -149 -32 -191 -4 -42 -10 -76 -14 -76 -4 0 -10 34
-14 76 -3 42 -17 128 -32 191 -127 569 -544 1060 -1079 1271 -174 68 -396 122
-507 122 -21 0 -38 5 -38 10 0 6 17 10 38 10 63 0 221 29 328 60 304 89 556
239 781 466 237 239 406 546 477 865 14 64 29 151 32 193 4 42 10 76 14 76 4
0 10 -33 13 -74z m3600 0 c29 -334 199 -717 441 -989 160 -179 331 -309 551
-417 207 -102 396 -158 596 -176 74 -7 95 -24 30 -24 -97 0 -343 -57 -480
-112 -563 -223 -976 -702 -1105 -1279 -14 -64 -29 -151 -32 -193 -4 -42 -10
-76 -14 -76 -4 0 -10 34 -14 76 -27 330 -193 702 -436 982 -277 319 -703 547
-1110 593 -131 16 -138 21 -41 31 307 30 647 168 902 364 146 112 311 293 414
452 63 99 158 298 194 407 37 116 70 266 78 361 3 41 9 74 13 74 4 0 10 -33
13 -74z"/>
</g>
</svg>
